<?xml version="1.0" standalone="no"?>
<!DOCTYPE svg PUBLIC "-//W3C//DTD SVG 20010904//EN"
 "http://www.w3.org/TR/2001/REC-SVG-20010904/DTD/svg10.dtd">
<svg version="1.0" xmlns="http://www.w3.org/2000/svg"
 width="512.000000pt" height="512.000000pt" viewBox="0 0 512.000000 512.000000"
 preserveAspectRatio="xMidYMid meet">

<g transform="translate(0.000000,512.000000) scale(0.100000,-0.100000)"
fill="#000000" stroke="none">
<path d="M2372 4790 c-175 -22 -366 -81 -527 -162 -598 -300 -947 -942 -874
-1606 58 -528 363 -1180 904 -1933 220 -306 534 -696 598 -741 45 -32 129 -32
175 0 38 28 241 268 398 473 664 865 1038 1612 1103 2201 53 483 -114 959
-458 1306 -228 229 -507 378 -826 442 -116 23 -380 34 -493 20z m438 -334
c515 -110 905 -502 1007 -1013 24 -121 24 -366 0 -486 -100 -501 -432 -1151
-927 -1812 -112 -149 -309 -387 -326 -392 -15 -5 -225 246 -370 442 -466 629
-799 1286 -889 1756 -26 136 -30 297 -11 429 85 579 539 1019 1126 1094 70 9
317 -3 390 -18z"/>
<path d="M2445 3830 c-132 -28 -239 -86 -334 -181 -77 -77 -122 -148 -158
-251 -23 -63 -27 -89 -27 -198 0 -110 3 -134 26 -198 37 -104 83 -176 158
-252 253 -252 648 -253 901 -1 206 206 247 521 102 771 -76 130 -221 246 -363
291 -73 23 -239 34 -305 19z m253 -341 c60 -30 128 -98 155 -157 31 -66 31
-198 1 -263 -31 -66 -87 -124 -152 -156 -49 -24 -69 -28 -142 -28 -100 0 -159
23 -225 89 -65 66 -89 126 -89 226 0 70 4 94 24 135 42 86 123 152 215 176 51
14 163 2 213 -22z"/>
</g>
</svg>
