<?xml version="1.0" standalone="no"?>
<!DOCTYPE svg PUBLIC "-//W3C//DTD SVG 20010904//EN"
 "http://www.w3.org/TR/2001/REC-SVG-20010904/DTD/svg10.dtd">
<svg version="1.0" xmlns="http://www.w3.org/2000/svg"
 width="179.000000pt" height="61.000000pt" viewBox="0 0 179.000000 61.000000"
 preserveAspectRatio="xMidYMid meet">

<g transform="translate(0.000000,61.000000) scale(0.100000,-0.100000)"
fill="#000000" stroke="none">
<path d="M65 341 c3 -19 10 -53 17 -75 l11 -41 13 30 c7 17 13 39 13 50 -1 11
-6 2 -12 -20 l-11 -40 -18 65 c-10 36 -16 49 -13 31z"/>
<path d="M127 364 c-11 -11 -8 -36 3 -29 6 3 10 -2 11 -12 0 -10 3 -13 5 -7 6
15 -10 57 -19 48z"/>
<path d="M191 333 c-6 -21 -11 -45 -10 -53 0 -8 7 7 14 35 8 27 12 51 10 53
-2 2 -8 -13 -14 -35z"/>
<path d="M260 325 c-11 -26 -22 -59 -25 -73 -5 -25 -5 -26 4 -4 6 12 14 22 18
22 4 0 8 14 9 31 2 57 20 53 43 -11 13 -34 25 -60 27 -58 4 5 -42 127 -51 136
-2 3 -14 -16 -25 -43z"/>
<path d="M382 298 l1 -73 6 60 6 60 34 -57 c19 -31 39 -55 43 -52 5 3 3 11 -5
17 -7 7 -28 36 -46 65 -18 28 -35 52 -37 52 -2 0 -3 -33 -2 -72z"/>
<path d="M540 355 c-17 -21 -18 -89 -1 -109 14 -16 47 -21 75 -10 10 4 16 17
15 38 l-1 31 -7 -30 c-5 -25 -12 -31 -37 -33 -27 -3 -33 1 -42 27 -8 22 -8 40
0 62 9 27 14 30 44 27 18 -2 30 0 28 4 -9 14 -61 9 -74 -7z"/>
<path d="M687 355 c-4 -9 -6 -40 -5 -68 l1 -52 6 60 6 60 33 -57 c18 -32 37
-60 43 -63 5 -4 8 23 7 67 l-1 73 -6 -59 -6 -60 -36 58 c-28 45 -37 55 -42 41z"/>
<path d="M846 304 c-14 -37 -24 -69 -22 -72 3 -2 14 24 26 57 24 65 34 69 45
20 8 -34 35 -90 35 -72 0 16 -39 116 -49 126 -5 5 -20 -22 -35 -59z"/>
<path d="M972 298 l1 -73 6 65 6 65 33 -57 c18 -32 37 -60 43 -63 5 -4 8 23 7
67 l-1 73 -6 -62 -6 -62 -34 59 c-19 33 -39 60 -43 60 -4 0 -7 -33 -6 -72z"/>
<path d="M1354 355 c-10 -25 3 -44 41 -59 49 -21 45 -51 -7 -51 -20 0 -34 -3
-31 -7 8 -14 60 -8 73 7 18 22 5 44 -35 61 -24 10 -35 21 -35 35 0 18 5 21 34
17 19 -2 32 0 30 4 -9 14 -64 9 -70 -7z"/>
<path d="M1482 314 c-2 -64 8 -84 43 -84 34 0 45 20 43 79 l-1 56 -6 -60 c-6
-59 -7 -60 -36 -60 -30 0 -30 1 -36 65 l-6 65 -1 -61z"/>
<path d="M1632 300 l1 -75 7 65 c4 36 3 69 -2 75 -4 5 -7 -25 -6 -65z"/>
<path d="M473 310 c0 -30 2 -43 4 -27 2 15 2 39 0 55 -2 15 -4 2 -4 -28z"/>
<path d="M1713 315 c0 -27 2 -38 4 -22 2 15 2 37 0 50 -2 12 -4 0 -4 -28z"/>
<path d="M1650 336 c0 -9 63 -106 67 -102 2 2 -11 27 -28 55 -29 47 -39 58
-39 47z"/>
<path d="M151 284 c0 -11 3 -14 6 -6 3 7 2 16 -1 19 -3 4 -6 -2 -5 -13z"/>
<path d="M868 273 c7 -3 16 -2 19 1 4 3 -2 6 -13 5 -11 0 -14 -3 -6 -6z"/>
<path d="M1174 254 c-4 -10 -16 -30 -28 -44 l-21 -25 23 20 c27 23 46 54 38
62 -3 3 -9 -3 -12 -13z"/>
<path d="M160 245 c0 -8 5 -15 10 -15 6 0 10 7 10 15 0 8 -4 15 -10 15 -5 0
-10 -7 -10 -15z"/>
</g>
</svg>
